<svg xmlns="http://www.w3.org/2000/svg" width="16" height="16" viewBox="0 0 24 24" fill="#1b8fd2"><path d="M21.625 10.031a.869.869 0 01-.438-.121v2.965H2.813V9.911A.87.87 0 011.5 9.155v-3.5a.87.87 0 011.313-.753v-2.09A1.42 1.42 0 014.125 1.5h15.75a1.42 1.42 0 011.312 1.313v2.09a.87.87 0 011.313.753v3.5a.875.875 0 01-.875.875zM8.063 5.22a2.187 2.188 0 102.187 2.187A2.187 2.188 0 008.063 5.22zm7.874 0a2.187 2.188 0 102.188 2.187 2.187 2.188 0 00-2.188-2.187zm5.25 10.718a1.42 1.42 0 01-1.312 1.313h-1.75v5.25l-5.687-5.25H4.125a1.42 1.42 0 01-1.312-1.313V13.75h18.374z"/></svg>
